<svg xmlns="http://www.w3.org/2000/svg" data-name="Layer 1" viewBox="0 0 128 160" x="0px" y="0px"><title>various people avatars final</title><path d="M90,95.5h16a2,2,0,0,0,0-4H96v-2a2,2,0,0,0-4,0v2H90a2,2,0,0,0,0,4Z"/><path d="M90,26A26,26,0,1,0,64,52,26.02948,26.02948,0,0,0,90,26ZM64,48A22,22,0,1,1,86,26,22,22,0,0,1,64,48Z"/><path d="M6.84369,77.54279a4.0002,4.0002,0,0,0-.7215,3.43829l11.13214,44A4,4,0,0,0,21.13214,128h85.73572a4.00009,4.00009,0,0,0,3.87787-3.01892l11.13208-44A3.99994,3.99994,0,0,0,118,76H10A4.0001,4.0001,0,0,0,6.84369,77.54279ZM118,80l-11.13214,44H21.13214L10,80Z"/><path d="M64,111c6.729,0,12-4.39252,12-10S70.729,91,64,91s-12,4.39252-12,10S57.27106,111,64,111Zm0-16c4.41827,0,8,2.68628,8,6s-3.58173,6-8,6-8-2.68628-8-6S59.58173,95,64,95Z"/><path d="M37.4165,52H49.06256a30.16068,30.16068,0,0,1-5.43024-4H37.4165A22.2508,22.2508,0,0,0,15.002,70.08691L15.08514,72H19.087L19,70A18.2328,18.2328,0,0,1,37.4165,52Z"/><path d="M112.91315,72,113,70A22.23643,22.23643,0,0,0,90.5835,48H84.36768a30.16068,30.16068,0,0,1-5.43024,4H90.5835C100.73828,52,109,60.0752,109.002,69.91309L108.91119,72Z"/><path d="M71.87128,57.68579l-.66718-2.566a29.81687,29.81687,0,0,1-3.95074.70081L68,58.69232,64,61l-4-2.30768.74664-2.87177a29.81687,29.81687,0,0,1-3.95074-.70081l-.66718,2.566A3.99983,3.99983,0,0,0,58.00116,62.157l.37219.21472L57.30914,72h4.024l.8244-7.45831a3.93237,3.93237,0,0,0,3.68481,0L66.66681,72h4.024l-1.06421-9.62823.37225-.21472A3.99988,3.99988,0,0,0,71.87128,57.68579Z"/><text x="0" y="143" fill="#000000" font-size="5px" font-weight="bold" font-family="'Helvetica Neue', Helvetica, Arial-Unicode, Arial, Sans-serif">Created by priyanka</text><text x="0" y="148" fill="#000000" font-size="5px" font-weight="bold" font-family="'Helvetica Neue', Helvetica, Arial-Unicode, Arial, Sans-serif">from the Noun Project</text></svg>