<?xml version="1.0" encoding="utf-8"?>
<!-- Generator: Adobe Illustrator 21.0.0, SVG Export Plug-In . SVG Version: 6.00 Build 0)  -->
<svg version="1.1" id="Layer_1" xmlns="http://www.w3.org/2000/svg" xmlns:xlink="http://www.w3.org/1999/xlink" x="0px" y="0px"
	 viewBox="0 0 576 411" style="enable-background:new 0 0 576 411;" xml:space="preserve">
<style type="text/css">
	.st0{opacity:0.1;}
	.st1{fill:#FFFFFF;}
</style>
<g class="st0">
	<polygon class="st1" points="575.3,145.9 575.3,145.9 575.3,145.9 	"/>
	<polygon class="st1" points="567.8,132.9 568,133 567.8,133.2 	"/>
	<polygon class="st1" points="575.1,120.2 575.4,120 575.4,120.4 	"/>
	<polygon class="st1" points="567.7,107 568.2,107.3 567.7,107.6 	"/>
	<polygon class="st1" points="590.1,120.1 590.2,120.2 590.1,120.2 	"/>
	<polygon class="st1" points="575,94.5 575.5,94.2 575.5,94.8 	"/>
	<polygon class="st1" points="567.6,81.2 568.4,81.6 567.6,82 	"/>
	<polygon class="st1" points="597.5,107.3 597.6,107.2 597.6,107.4 	"/>
	<polygon class="st1" points="590,94.3 590.3,94.5 590,94.6 	"/>
	<polygon class="st1" points="574.9,68.8 575.5,68.4 575.5,69.1 	"/>
	<polygon class="st1" points="567.6,55.4 568.4,55.9 567.6,56.4 	"/>
	<polygon class="st1" points="612.4,107.3 612.4,107.3 612.4,107.3 	"/>
	<polygon class="st1" points="597.4,81.6 597.6,81.5 597.6,81.7 	"/>
	<polygon class="st1" points="590,68.6 590.3,68.8 590,68.9 	"/>
	<polygon class="st1" points="574.9,43 575.5,42.7 575.5,43.4 	"/>
	<polygon class="st1" points="567.6,29.8 568.4,30.2 567.6,30.6 	"/>
	<polygon class="st1" points="619.8,94.5 619.8,94.5 619.8,94.5 	"/>
	<polygon class="st1" points="612.4,81.6 612.4,81.6 612.4,81.6 	"/>
	<polygon class="st1" points="597.5,55.9 597.6,55.8 597.6,56 	"/>
	<polygon class="st1" points="590.1,42.9 590.3,43 590.1,43.2 	"/>
	<polygon class="st1" points="575,17.3 575.4,17.1 575.4,17.6 	"/>
	<polygon class="st1" points="567.7,4.2 568.2,4.5 567.7,4.7 	"/>
	<polygon class="st1" points="590.1,17.3 590.2,17.3 590.1,17.4 	"/>
	<polygon class="st1" points="575.3,-8.4 575.3,-8.4 575.3,-8.4 	"/>
	<g>
		<polygon class="st1" points="405.9,261.6 406,261.6 405.9,261.6 		"/>
		<polygon class="st1" points="390.8,261.6 391.2,261.4 391.2,261.8 		"/>
		<polygon class="st1" points="413,248.7 413.5,248.4 413.5,249 		"/>
		<polygon class="st1" points="383.2,248 384.5,248.7 383.2,249.5 		"/>
		<polygon class="st1" points="368.7,274.5 368.9,274.4 368.9,274.5 		"/>
		<polygon class="st1" points="405.4,235 406.9,235.9 405.4,236.8 		"/>
		<polygon class="st1" points="389.7,235.9 391.7,234.7 391.7,237.1 		"/>
		<polygon class="st1" points="367.7,248.7 369.4,247.8 369.4,249.7 		"/>
		<polygon class="st1" points="361,261 362.1,261.6 361,262.2 		"/>
		<polygon class="st1" points="428.1,248.6 428.3,248.7 428.1,248.8 		"/>
		<polygon class="st1" points="427.7,222.1 429.2,223 427.7,223.9 		"/>
		<polygon class="st1" points="411.8,223 414.1,221.7 414.1,224.3 		"/>
		<polygon class="st1" points="382.5,221 386,223 382.5,225 		"/>
		<polygon class="st1" points="366.1,223 370.2,220.7 370.2,225.4 		"/>
		<polygon class="st1" points="360.3,234.1 363.5,235.9 360.3,237.7 		"/>
		<polygon class="st1" points="345.3,261.6 347.2,260.5 347.2,262.7 		"/>
		<polygon class="st1" points="338.7,273.7 340,274.5 338.7,275.3 		"/>
		<polygon class="st1" points="346.4,287.3 346.6,287.2 346.6,287.4 		"/>
		<polygon class="st1" points="435.3,235.9 435.8,235.6 435.8,236.2 		"/>
		<polygon class="st1" points="434.3,210.2 436.3,209 436.3,211.3 		"/>
		<polygon class="st1" points="404.6,208 408.4,210.2 404.6,212.4 		"/>
		<polygon class="st1" points="388,210.2 392.6,207.5 392.6,212.8 		"/>
		<polygon class="st1" points="359.4,206.7 365.3,210.2 359.4,213.6 		"/>
		<polygon class="st1" points="344,235.9 347.8,233.7 347.8,238.1 		"/>
		<polygon class="st1" points="338.1,246.9 341.2,248.7 338.1,250.6 		"/>
		<polygon class="st1" points="322.7,274.5 325,273.1 325,275.8 		"/>
		<polygon class="st1" points="450.4,235.9 450.5,235.9 450.4,235.9 		"/>
		<polygon class="st1" points="427.1,195.4 430.4,197.3 427.1,199.3 		"/>
		<polygon class="st1" points="410.4,197.3 414.8,194.8 414.8,199.9 		"/>
		<polygon class="st1" points="381.6,193.7 387.8,197.3 381.6,200.9 		"/>
		<polygon class="st1" points="364.2,197.3 371.1,193.4 371.1,201.3 		"/>
		<polygon class="st1" points="342.1,210.2 348.8,206.3 348.8,214 		"/>
		<polygon class="st1" points="337.2,219.8 342.9,223 337.2,226.3 		"/>
		<polygon class="st1" points="321.5,248.7 325.7,246.3 325.7,251.2 		"/>
		<polygon class="st1" points="315.5,259.3 319.5,261.6 315.5,263.9 		"/>
		<polygon class="st1" points="316.2,286.1 318.2,287.3 316.2,288.5 		"/>
		<polygon class="st1" points="323.8,300.2 324.5,299.8 324.5,300.6 		"/>
		<polygon class="st1" points="457.7,223 458,222.9 458,223.2 		"/>
		<polygon class="st1" points="450,209.5 451.3,210.2 450,210.9 		"/>
		<polygon class="st1" points="449.6,182.9 452.2,184.5 449.6,186 		"/>
		<polygon class="st1" points="433.2,184.5 436.8,182.4 436.8,186.5 		"/>
		<polygon class="st1" points="404,181.1 409.8,184.5 404,187.9 		"/>
		<polygon class="st1" points="386.5,184.5 393.3,180.5 393.3,188.4 		"/>
		<polygon class="st1" points="358.6,179.7 366.9,184.5 358.6,189.2 		"/>
		<polygon class="st1" points="340.7,184.5 349.5,179.4 349.5,189.5 		"/>
		<polygon class="st1" points="336.4,192.6 344.5,197.3 336.4,202 		"/>
		<polygon class="st1" points="319.9,223 326.5,219.2 326.5,226.8 		"/>
		<polygon class="st1" points="314.9,232.4 320.8,235.9 314.9,239.3 		"/>
		<polygon class="st1" points="298.3,261.6 303.8,258.4 303.8,264.8 		"/>
		<polygon class="st1" points="292.8,271.3 298.2,274.5 292.8,277.6 		"/>
		<polygon class="st1" points="299.6,287.3 303.2,285.2 303.2,289.4 		"/>
		<polygon class="st1" points="316.7,312.7 317.2,313 316.7,313.3 		"/>
		<polygon class="st1" points="456.8,197.3 458.4,196.4 458.4,198.2 		"/>
		<polygon class="st1" points="456,171.6 458.8,170 458.8,173.2 		"/>
		<polygon class="st1" points="426.5,168.7 431.5,171.6 426.5,174.5 		"/>
		<polygon class="st1" points="409.2,171.6 415.4,168 415.4,175.2 		"/>
		<polygon class="st1" points="381,167 389,171.6 381,176.2 		"/>
		<polygon class="st1" points="363,171.6 371.7,166.6 371.7,176.6 		"/>
		<polygon class="st1" points="335.9,166.1 345.5,171.6 335.9,177.1 		"/>
		<polygon class="st1" points="318.4,197.3 327.2,192.2 327.2,202.4 		"/>
		<polygon class="st1" points="314,205.3 322.4,210.2 314,215 		"/>
		<polygon class="st1" points="297,235.9 304.5,231.6 304.5,240.2 		"/>
		<polygon class="st1" points="292.2,244.6 299.4,248.7 292.2,252.9 		"/>
		<polygon class="st1" points="274.8,274.5 282.2,270.2 282.2,278.7 		"/>
		<polygon class="st1" points="293.5,298.2 296.8,300.2 293.5,302.1 		"/>
		<polygon class="st1" points="300.9,313 302.6,312 302.6,314 		"/>
		<polygon class="st1" points="472.5,196.9 473.2,197.3 472.5,197.8 		"/>
		<polygon class="st1" points="449.1,156.5 453,158.7 449.1,161 		"/>
		<polygon class="st1" points="432.3,158.7 437.3,155.9 437.3,161.6 		"/>
		<polygon class="st1" points="403.5,154.5 410.8,158.7 403.5,163 		"/>
		<polygon class="st1" points="385.6,158.7 393.8,154 393.8,163.5 		"/>
		<polygon class="st1" points="358.2,153.3 367.7,158.7 358.2,164.2 		"/>
		<polygon class="st1" points="340,158.7 349.8,153.1 349.8,164.4 		"/>
		<polygon class="st1" points="317.5,171.6 327.6,165.8 327.6,177.4 		"/>
		<polygon class="st1" points="313.5,178.7 323.5,184.5 313.5,190.2 		"/>
		<polygon class="st1" points="295.7,210.2 305.2,204.7 305.2,215.6 		"/>
		<polygon class="st1" points="291.5,217.7 300.7,223 291.5,228.4 		"/>
		<polygon class="st1" points="273.7,248.7 282.8,243.5 282.8,254 		"/>
		<polygon class="st1" points="269.2,256.2 278.5,261.6 269.2,267 		"/>
		<polygon class="st1" points="269.8,283 277.3,287.3 269.8,291.6 		"/>
		<polygon class="st1" points="276.3,300.2 281.5,297.2 281.5,303.1 		"/>
		<polygon class="st1" points="294.1,325 295.6,325.9 294.1,326.7 		"/>
		<polygon class="st1" points="301.8,338.7 302.1,338.6 302.1,338.9 		"/>
		<polygon class="st1" points="479.5,184.5 480.5,183.9 480.5,185 		"/>
		<polygon class="st1" points="472.1,170.5 474,171.6 472.1,172.7 		"/>
		<polygon class="st1" points="471.7,144.2 474.7,145.9 471.7,147.6 		"/>
		<polygon class="st1" points="455.2,145.9 459.2,143.6 459.2,148.2 		"/>
		<polygon class="st1" points="426.1,142.4 432.3,145.9 426.1,149.4 		"/>
		<polygon class="st1" points="408.5,145.9 415.8,141.7 415.8,150.1 		"/>
		<polygon class="st1" points="380.7,140.8 389.6,145.9 380.7,151 		"/>
		<polygon class="st1" points="362.5,145.9 372,140.4 372,151.4 		"/>
		<polygon class="st1" points="335.8,140.1 345.8,145.9 335.8,151.7 		"/>
		<polygon class="st1" points="317.4,145.9 327.7,140 327.7,151.8 		"/>
		<polygon class="st1" points="313.4,152.7 323.8,158.7 313.4,164.8 		"/>
		<polygon class="st1" points="295,184.5 305.5,178.4 305.5,190.5 		"/>
		<polygon class="st1" points="291.1,191.2 301.6,197.3 291.1,203.4 		"/>
		<polygon class="st1" points="272.5,223 283.3,216.8 283.3,229.3 		"/>
		<polygon class="st1" points="268.6,229.5 279.6,235.9 268.6,242.2 		"/>
		<polygon class="st1" points="250,261.6 261.2,255.1 261.2,268.1 		"/>
		<polygon class="st1" points="246.2,267.9 257.7,274.5 246.2,281 		"/>
		<polygon class="st1" points="251.2,287.3 260.6,281.9 260.6,292.7 		"/>
		<polygon class="st1" points="270.7,310.2 275.6,313 270.7,315.9 		"/>
		<polygon class="st1" points="277.8,325.9 280.7,324.2 280.7,327.6 		"/>
		<polygon class="st1" points="294.5,351.5 294.7,351.6 294.5,351.7 		"/>
		<polygon class="st1" points="494.9,184.3 495.2,184.5 494.9,184.7 		"/>
		<polygon class="st1" points="478.8,158.7 480.8,157.6 480.8,159.9 		"/>
		<polygon class="st1" points="478.1,133 481.1,131.3 481.1,134.8 		"/>
		<polygon class="st1" points="448.8,130.2 453.8,133 448.8,135.9 		"/>
		<polygon class="st1" points="431.6,133 437.6,129.6 437.6,136.5 		"/>
		<polygon class="st1" points="403.2,128.4 411.3,133 403.2,137.7 		"/>
		<polygon class="st1" points="385.2,133 394,127.9 394,138.1 		"/>
		<polygon class="st1" points="358.1,127.4 367.9,133 358.1,138.7 		"/>
		<polygon class="st1" points="339.9,133 349.8,127.3 349.8,138.8 		"/>
		<polygon class="st1" points="313.5,127.2 323.6,133 313.5,138.9 		"/>
		<polygon class="st1" points="294.9,158.7 305.5,152.6 305.5,164.9 		"/>
		<polygon class="st1" points="290.9,165.3 301.8,171.6 290.9,177.9 		"/>
		<polygon class="st1" points="272.1,197.3 283.6,190.7 283.6,204 		"/>
		<polygon class="st1" points="268.3,203.3 280.3,210.2 268.3,217.1 		"/>
		<polygon class="st1" points="249,235.9 261.7,228.6 261.7,243.2 		"/>
		<polygon class="st1" points="245.8,241.3 258.6,248.7 245.8,256.2 		"/>
		<polygon class="st1" points="226.4,274.5 239.6,266.8 239.6,282.1 		"/>
		<polygon class="st1" points="247,294.9 256.1,300.2 247,305.4 		"/>
		<polygon class="st1" points="253,313 259.7,309.1 259.7,316.9 		"/>
		<polygon class="st1" points="271.4,337.2 274.1,338.7 271.4,340.2 		"/>
		<polygon class="st1" points="279,351.6 280.1,350.9 280.1,352.3 		"/>
		<polygon class="st1" points="502,171.6 502.6,171.3 502.6,172 		"/>
		<polygon class="st1" points="494.5,158 495.9,158.7 494.5,159.5 		"/>
		<polygon class="st1" points="471.4,117.9 475.4,120.2 471.4,122.5 		"/>
		<polygon class="st1" points="454.5,120.2 459.5,117.3 459.5,123.1 		"/>
		<polygon class="st1" points="425.9,116.2 432.8,120.2 425.9,124.2 		"/>
		<polygon class="st1" points="408.1,120.2 416,115.6 416,124.7 		"/>
		<polygon class="st1" points="380.6,115 389.7,120.2 380.6,125.4 		"/>
		<polygon class="st1" points="362.5,120.2 371.9,114.8 371.9,125.6 		"/>
		<polygon class="st1" points="336,114.7 345.4,120.2 336,125.6 		"/>
		<polygon class="st1" points="318,120.2 327.4,114.8 327.4,125.6 		"/>
		<polygon class="st1" points="295.3,133 305.3,127.3 305.3,138.8 		"/>
		<polygon class="st1" points="291.1,139.9 301.5,145.9 291.1,151.9 		"/>
		<polygon class="st1" points="272.2,171.6 283.5,165.1 283.5,178.1 		"/>
		<polygon class="st1" points="268.4,177.6 280.2,184.5 268.4,191.3 		"/>
		<polygon class="st1" points="248.6,210.2 261.9,202.5 261.9,217.8 		"/>
		<polygon class="st1" points="245.4,215.1 259.2,223 245.4,231 		"/>
		<polygon class="st1" points="225.6,248.7 240,240.4 240,257 		"/>
		<polygon class="st1" points="222.8,253.1 237.6,261.6 222.8,270.1 		"/>
		<polygon class="st1" points="223.4,279.7 236.6,287.3 223.4,294.9 		"/>
		<polygon class="st1" points="227.9,300.2 238.8,293.8 238.8,306.5 		"/>
		<polygon class="st1" points="248,322.3 254.2,325.9 248,329.4 		"/>
		<polygon class="st1" points="254.8,338.7 258.8,336.4 258.8,341 		"/>
		<polygon class="st1" points="272,363.8 273,364.4 272,365.1 		"/>
		<polygon class="st1" points="279.7,377.3 279.7,377.3 279.7,377.3 		"/>
		<polygon class="st1" points="517.2,171.5 517.4,171.6 517.2,171.7 		"/>
		<polygon class="st1" points="501.4,145.9 502.9,145 502.9,146.7 		"/>
		<polygon class="st1" points="494.2,131.7 496.5,133 494.2,134.3 		"/>
		<polygon class="st1" points="493.9,105.5 497.1,107.3 493.9,109.1 		"/>
		<polygon class="st1" points="477.5,107.3 481.5,105.1 481.5,109.6 		"/>
		<polygon class="st1" points="448.5,104 454.3,107.3 448.5,110.6 		"/>
		<polygon class="st1" points="431.3,107.3 437.8,103.6 437.8,111.1 		"/>
		<polygon class="st1" points="403.2,102.7 411.2,107.3 403.2,111.9 		"/>
		<polygon class="st1" points="385.5,107.3 393.9,102.5 393.9,112.2 		"/>
		<polygon class="st1" points="358.5,102.3 367.2,107.3 358.5,112.4 		"/>
		<polygon class="st1" points="340.8,107.3 349.4,102.4 349.4,112.3 		"/>
		<polygon class="st1" points="314.1,102.5 322.4,107.3 314.1,112.1 		"/>
		<polygon class="st1" points="296.7,107.3 304.7,102.7 304.7,112 		"/>
		<polygon class="st1" points="291.6,115 300.6,120.2 291.6,125.4 		"/>
		<polygon class="st1" points="272.7,145.9 283.3,139.8 283.3,152 		"/>
		<polygon class="st1" points="268.6,152.3 279.7,158.7 268.6,165.2 		"/>
		<polygon class="st1" points="249.1,184.5 261.6,177.2 261.6,191.7 		"/>
		<polygon class="st1" points="245.6,189.6 259,197.3 245.6,205.1 		"/>
		<polygon class="st1" points="225.2,223 240.2,214.4 240.2,231.7 		"/>
		<polygon class="st1" points="222.6,226.9 238.2,235.9 222.6,244.9 		"/>
		<polygon class="st1" points="202.2,261.6 218.3,252.3 218.3,270.9 		"/>
		<polygon class="st1" points="200.1,265.1 216.3,274.5 200.1,283.8 		"/>
		<polygon class="st1" points="203,287.3 217.9,278.7 217.9,295.9 		"/>
		<polygon class="st1" points="224.3,307 234.7,313 224.3,319.1 		"/>
		<polygon class="st1" points="229.9,325.9 237.8,321.3 237.8,330.4 		"/>
		<polygon class="st1" points="248.9,349.5 252.4,351.6 248.9,353.6 		"/>
		<polygon class="st1" points="256.1,364.4 258.2,363.3 258.2,365.6 		"/>
		<polygon class="st1" points="524.4,158.7 524.8,158.5 524.8,159 		"/>
		<polygon class="st1" points="516.9,145.4 517.9,145.9 516.9,146.4 		"/>
		<polygon class="st1" points="500.8,120.2 503.2,118.8 503.2,121.6 		"/>
		<polygon class="st1" points="500.4,94.5 503.4,92.7 503.4,96.2 		"/>
		<polygon class="st1" points="471.2,91.9 475.7,94.5 471.2,97.1 		"/>
		<polygon class="st1" points="454.3,94.5 459.6,91.4 459.6,97.5 		"/>
		<polygon class="st1" points="426,90.7 432.6,94.5 426,98.3 		"/>
		<polygon class="st1" points="408.6,94.5 415.7,90.3 415.7,98.6 		"/>
		<polygon class="st1" points="381.1,90.1 388.7,94.5 381.1,98.8 		"/>
		<polygon class="st1" points="363.7,94.5 371.4,90 371.4,98.9 		"/>
		<polygon class="st1" points="336.7,90.2 344,94.5 336.7,98.7 		"/>
		<polygon class="st1" points="319.5,94.5 326.7,90.3 326.7,98.6 		"/>
		<polygon class="st1" points="292.4,90.7 299,94.5 292.4,98.3 		"/>
		<polygon class="st1" points="273.9,120.2 282.7,115.1 282.7,125.3 		"/>
		<polygon class="st1" points="269,127.3 278.9,133 269,138.8 		"/>
		<polygon class="st1" points="249.9,158.7 261.3,152.2 261.3,165.3 		"/>
		<polygon class="st1" points="246,164.6 258.2,171.6 246,178.6 		"/>
		<polygon class="st1" points="225.8,197.3 239.9,189.1 239.9,205.5 		"/>
		<polygon class="st1" points="222.7,201.4 237.9,210.2 222.7,218.9 		"/>
		<polygon class="st1" points="201.9,235.9 218.4,226.3 218.4,245.4 		"/>
		<polygon class="st1" points="199.9,239.1 216.7,248.7 199.9,258.4 		"/>
		<polygon class="st1" points="179.4,274.5 196.3,264.7 196.3,284.2 		"/>
		<polygon class="st1" points="200.8,292 215,300.2 200.8,308.4 		"/>
		<polygon class="st1" points="204.9,313 217,306 217,320 		"/>
		<polygon class="st1" points="225.4,334.6 232.5,338.7 225.4,342.8 		"/>
		<polygon class="st1" points="231.9,351.6 236.8,348.7 236.8,354.4 		"/>
		<polygon class="st1" points="249.5,376.4 251.1,377.3 249.5,378.2 		"/>
		<polygon class="st1" points="257.2,390.2 257.6,389.9 257.6,390.4 		"/>
		<polygon class="st1" points="539.5,158.6 539.6,158.7 539.5,158.9 		"/>
		<polygon class="st1" points="523.9,133 525,132.4 525,133.7 		"/>
		<polygon class="st1" points="516.7,119.2 518.4,120.2 516.7,121.2 		"/>
		<polygon class="st1" points="493.8,79.6 497.3,81.6 493.8,83.6 		"/>
		<polygon class="st1" points="477.4,81.6 481.5,79.3 481.5,84 		"/>
		<polygon class="st1" points="448.7,78.6 454,81.6 448.7,84.7 		"/>
		<polygon class="st1" points="431.8,81.6 437.5,78.3 437.5,84.9 		"/>
		<polygon class="st1" points="403.8,77.9 410.2,81.6 403.8,85.4 		"/>
		<polygon class="st1" points="386.7,81.6 393.3,77.8 393.3,85.4 		"/>
		<polygon class="st1" points="359.2,77.9 365.7,81.6 359.2,85.4 		"/>
		<polygon class="st1" points="342.4,81.6 348.6,78 348.6,85.2 		"/>
		<polygon class="st1" points="314.9,78.2 320.7,81.6 314.9,85 		"/>
		<polygon class="st1" points="298.3,81.6 303.8,78.4 303.8,84.8 		"/>
		<polygon class="st1" points="275.4,94.5 281.9,90.7 281.9,98.2 		"/>
		<polygon class="st1" points="269.8,102.9 277.4,107.3 269.8,111.7 		"/>
		<polygon class="st1" points="250.9,133 260.7,127.4 260.7,138.7 		"/>
		<polygon class="st1" points="246.5,139.7 257.2,145.9 246.5,152.1 		"/>
		<polygon class="st1" points="226.9,171.6 239.4,164.4 239.4,178.8 		"/>
		<polygon class="st1" points="223.3,176.6 236.8,184.5 223.3,192.3 		"/>
		<polygon class="st1" points="202.5,210.2 218.2,201.1 218.2,219.2 		"/>
		<polygon class="st1" points="200,213.5 216.5,223 200,232.6 		"/>
		<polygon class="st1" points="179.2,248.7 196.4,238.8 196.4,258.7 		"/>
		<polygon class="st1" points="177.5,251.6 194.8,261.6 177.5,271.6 		"/>
		<polygon class="st1" points="177.8,277.9 194.2,287.3 177.8,296.8 		"/>
		<polygon class="st1" points="180.6,300.2 195.7,291.5 195.7,308.9 		"/>
		<polygon class="st1" points="201.9,319.6 212.8,325.9 201.9,332.2 		"/>
		<polygon class="st1" points="207.2,338.7 215.8,333.8 215.8,343.7 		"/>
		<polygon class="st1" points="226.3,361.8 230.8,364.4 226.3,367.1 		"/>
		<polygon class="st1" points="233.4,377.3 236.1,375.8 236.1,378.8 		"/>
		<polygon class="st1" points="250,403 250,403 250,403 		"/>
		<polygon class="st1" points="546.7,145.9 547.1,145.7 547.1,146.1 		"/>
		<polygon class="st1" points="539.3,132.6 540,133 539.3,133.5 		"/>
		<polygon class="st1" points="523.5,107.3 525.3,106.3 525.3,108.4 		"/>
		<polygon class="st1" points="516.5,93.1 518.8,94.5 516.5,95.9 		"/>
		<polygon class="st1" points="516.4,67.3 519,68.8 516.4,70.2 		"/>
		<polygon class="st1" points="500.4,68.8 503.4,67 503.4,70.5 		"/>
		<polygon class="st1" points="471.4,66.4 475.4,68.8 471.4,71.1 		"/>
		<polygon class="st1" points="454.9,68.8 459.4,66.1 459.4,71.4 		"/>
		<polygon class="st1" points="426.4,65.8 431.7,68.8 426.4,71.8 		"/>
		<polygon class="st1" points="409.7,68.8 415.1,65.6 415.1,71.9 		"/>
		<polygon class="st1" points="381.8,65.6 387.3,68.8 381.8,71.9 		"/>
		<polygon class="st1" points="365.2,68.8 370.6,65.7 370.6,71.8 		"/>
		<polygon class="st1" points="337.5,65.9 342.4,68.8 337.5,71.6 		"/>
		<polygon class="st1" points="321.1,68.8 325.8,66 325.8,71.5 		"/>
		<polygon class="st1" points="293.1,66.3 297.5,68.8 293.1,71.3 		"/>
		<polygon class="st1" points="276.8,68.8 281.2,66.3 281.2,71.3 		"/>
		<polygon class="st1" points="270.5,78.5 275.9,81.6 270.5,84.7 		"/>
		<polygon class="st1" points="252.5,107.3 260,103 260,111.7 		"/>
		<polygon class="st1" points="247.2,115.2 255.8,120.2 247.2,125.2 		"/>
		<polygon class="st1" points="228,145.9 238.8,139.6 238.8,152.2 		"/>
		<polygon class="st1" points="223.9,152 235.6,158.7 223.9,165.5 		"/>
		<polygon class="st1" points="203.8,184.5 217.5,176.5 217.5,192.4 		"/>
		<polygon class="st1" points="200.6,188.8 215.4,197.3 200.6,205.9 		"/>
		<polygon class="st1" points="179.5,223 196.2,213.4 196.2,232.7 		"/>
		<polygon class="st1" points="177.5,225.9 194.8,235.9 177.5,245.9 		"/>
		<polygon class="st1" points="156.8,261.6 174.2,251.6 174.2,271.6 		"/>
		<polygon class="st1" points="155.3,264.6 172.3,274.5 155.3,284.3 		"/>
		<polygon class="st1" points="157.4,287.3 173.9,277.8 173.9,296.8 		"/>
		<polygon class="st1" points="178.7,305.1 192.4,313 178.7,321 		"/>
		<polygon class="st1" points="182.8,325.9 194.6,319.1 194.6,332.7 		"/>
		<polygon class="st1" points="203,347.3 210.5,351.6 203,355.9 		"/>
		<polygon class="st1" points="209.1,364.4 214.8,361.2 214.8,367.7 		"/>
		<polygon class="st1" points="227.1,389 229.1,390.2 227.1,391.3 		"/>
		<polygon class="st1" points="234.8,403 235.4,402.7 235.4,403.4 		"/>
		<polygon class="st1" points="569.2,158.7 569.2,158.7 569.2,158.8 		"/>
		<polygon class="st1" points="561.7,145.8 561.9,145.9 561.7,146 		"/>
		<polygon class="st1" points="546.3,120.2 547.2,119.7 547.2,120.7 		"/>
		<polygon class="st1" points="539.1,106.6 540.4,107.3 539.1,108.1 		"/>
		<polygon class="st1" points="523.2,81.6 525.4,80.3 525.4,82.9 		"/>
		<polygon class="st1" points="523.2,55.9 525.4,54.6 525.4,57.2 		"/>
		<polygon class="st1" points="494,54.1 497,55.9 494,57.7 		"/>
		<polygon class="st1" points="477.9,55.9 481.3,53.9 481.3,57.9 		"/>
		<polygon class="st1" points="449.1,53.5 453.2,55.9 449.1,58.3 		"/>
		<polygon class="st1" points="432.7,55.9 437,53.4 437,58.4 		"/>
		<polygon class="st1" points="404.4,53.3 409,55.9 404.4,58.5 		"/>
		<polygon class="st1" points="388.1,55.9 392.6,53.3 392.6,58.5 		"/>
		<polygon class="st1" points="359.9,53.4 364.3,55.9 359.9,58.4 		"/>
		<polygon class="st1" points="343.8,55.9 347.9,53.5 347.9,58.3 		"/>
		<polygon class="st1" points="315.6,53.7 319.3,55.9 315.6,58.1 		"/>
		<polygon class="st1" points="299.7,55.9 303.2,53.9 303.2,57.9 		"/>
		<polygon class="st1" points="271.1,53.8 274.7,55.9 271.1,58 		"/>
		<polygon class="st1" points="253.9,81.6 259.2,78.5 259.2,84.7 		"/>
		<polygon class="st1" points="247.9,90.8 254.3,94.5 247.9,98.2 		"/>
		<polygon class="st1" points="229.5,120.2 238,115.2 238,125.1 		"/>
		<polygon class="st1" points="224.5,127.4 234.3,133 224.5,138.7 		"/>
		<polygon class="st1" points="205.3,158.7 216.8,152.1 216.8,165.4 		"/>
		<polygon class="st1" points="201.4,164.5 213.8,171.6 201.4,178.7 		"/>
		<polygon class="st1" points="180.9,197.3 195.6,188.8 195.6,205.8 		"/>
		<polygon class="st1" points="178,201.1 193.7,210.2 178,219.3 		"/>
		<polygon class="st1" points="157,235.9 174.1,226 174.1,245.8 		"/>
		<polygon class="st1" points="155.2,238.8 172.4,248.7 155.2,258.7 		"/>
		<polygon class="st1" points="135.1,274.5 151.7,264.9 151.7,284 		"/>
		<polygon class="st1" points="155.9,291.4 171.1,300.2 155.9,308.9 		"/>
		<polygon class="st1" points="159.2,313 173,305 173,321 		"/>
		<polygon class="st1" points="180,333 189.8,338.7 180,344.4 		"/>
		<polygon class="st1" points="185.3,351.6 193.4,346.9 193.4,356.3 		"/>
		<polygon class="st1" points="204,374.7 208.6,377.3 204,379.9 		"/>
		<polygon class="st1" points="211.1,390.2 213.8,388.6 213.8,391.7 		"/>
		<polygon class="st1" points="227.7,415.8 227.9,415.9 227.7,415.9 		"/>
		<polygon class="st1" points="569,133 569.3,132.8 569.3,133.2 		"/>
		<polygon class="st1" points="561.6,119.8 562.2,120.2 561.6,120.5 		"/>
		<polygon class="st1" points="546,94.5 547.4,93.7 547.4,95.3 		"/>
		<polygon class="st1" points="538.9,80.6 540.7,81.6 538.9,82.6 		"/>
		<polygon class="st1" points="516.5,41.7 518.8,43 516.5,44.4 		"/>
		<polygon class="st1" points="500.7,43 503.3,41.5 503.3,44.6 		"/>
		<polygon class="st1" points="471.7,41.3 474.8,43 471.7,44.8 		"/>
		<polygon class="st1" points="455.7,43 459,41.1 459,44.9 		"/>
		<polygon class="st1" points="427,41 430.6,43 427,45.1 		"/>
		<polygon class="st1" points="410.9,43 414.5,41 414.5,45.1 		"/>
		<polygon class="st1" points="382.5,41 386,43 382.5,45.1 		"/>
		<polygon class="st1" points="366.5,43 370,41.1 370,45 		"/>
		<polygon class="st1" points="338,41.2 341.3,43 338,44.9 		"/>
		<polygon class="st1" points="322.3,43 325.3,41.3 325.3,44.8 		"/>
		<polygon class="st1" points="293.7,41.4 296.4,43 293.7,44.6 		"/>
		<polygon class="st1" points="277.9,43 280.7,41.4 280.7,44.7 		"/>
		<polygon class="st1" points="255,55.9 258.7,53.7 258.7,58.1 		"/>
		<polygon class="st1" points="248.5,66.2 253,68.8 248.5,71.4 		"/>
		<polygon class="st1" points="231,94.5 237.3,90.8 237.3,98.1 		"/>
		<polygon class="st1" points="225.3,103.1 232.6,107.3 225.3,111.5 		"/>
		<polygon class="st1" points="206.7,133 216.1,127.6 216.1,138.5 		"/>
		<polygon class="st1" points="202.1,140 212.4,145.9 202.1,151.8 		"/>
		<polygon class="st1" points="182.7,171.6 194.7,164.7 194.7,178.5 		"/>
		<polygon class="st1" points="178.9,176.9 192,184.5 178.9,192.1 		"/>
		<polygon class="st1" points="158.1,210.2 173.5,201.3 173.5,219.1 		"/>
		<polygon class="st1" points="155.5,213.6 171.8,223 155.5,232.4 		"/>
		<polygon class="st1" points="135,248.7 151.7,239.1 151.7,258.4 		"/>
		<polygon class="st1" points="133.2,252 149.8,261.6 133.2,271.2 		"/>
		<polygon class="st1" points="133.5,278.4 149,287.3 133.5,296.3 		"/>
		<polygon class="st1" points="136.3,300.2 151,291.6 151,308.7 		"/>
		<polygon class="st1" points="157,319 168.9,325.9 157,332.7 		"/>
		<polygon class="st1" points="161.7,338.7 171.7,333 171.7,344.5 		"/>
		<polygon class="st1" points="181,360.6 187.7,364.4 181,368.3 		"/>
		<polygon class="st1" points="187.4,377.3 192.3,374.5 192.3,380.1 		"/>
		<polygon class="st1" points="204.9,402 206.7,403 204.9,404 		"/>
		<polygon class="st1" points="212.5,415.9 213.1,415.5 213.1,416.2 		"/>
		<polygon class="st1" points="568.7,107.3 569.4,106.9 569.4,107.7 		"/>
		<polygon class="st1" points="561.4,93.9 562.5,94.5 561.4,95.1 		"/>
		<polygon class="st1" points="545.9,68.8 547.5,67.8 547.5,69.7 		"/>
		<polygon class="st1" points="538.9,54.8 540.7,55.9 538.9,57 		"/>
		<polygon class="st1" points="539,29.3 540.6,30.2 539,31.1 		"/>
		<polygon class="st1" points="523.4,30.2 525.3,29.1 525.3,31.3 		"/>
		<polygon class="st1" points="494.2,28.9 496.5,30.2 494.2,31.5 		"/>
		<polygon class="st1" points="478.5,30.2 480.9,28.8 480.9,31.6 		"/>
		<polygon class="st1" points="449.6,28.7 452.2,30.2 449.6,31.7 		"/>
		<polygon class="st1" points="433.8,30.2 436.5,28.6 436.5,31.7 		"/>
		<polygon class="st1" points="405,28.6 407.7,30.2 405,31.7 		"/>
		<polygon class="st1" points="389.3,30.2 392,28.6 392,31.7 		"/>
		<polygon class="st1" points="360.5,28.7 363.1,30.2 360.5,31.7 		"/>
		<polygon class="st1" points="344.9,30.2 347.4,28.7 347.4,31.6 		"/>
		<polygon class="st1" points="316.1,28.9 318.3,30.2 316.1,31.5 		"/>
		<polygon class="st1" points="300.6,30.2 302.7,29 302.7,31.4 		"/>
		<polygon class="st1" points="271.5,28.8 273.9,30.2 271.5,31.6 		"/>
		<polygon class="st1" points="255.7,30.2 258.3,28.7 258.3,31.7 		"/>
		<polygon class="st1" points="248.9,41.1 252.3,43 248.9,45 		"/>
		<polygon class="st1" points="232.1,68.8 236.7,66.1 236.7,71.4 		"/>
		<polygon class="st1" points="226,78.5 231.4,81.6 226,84.7 		"/>
		<polygon class="st1" points="208.2,107.3 215.3,103.3 215.3,111.4 		"/>
		<polygon class="st1" points="202.9,115.6 210.8,120.2 202.9,124.7 		"/>
		<polygon class="st1" points="184.1,145.9 193.9,140.3 193.9,151.5 		"/>
		<polygon class="st1" points="179.7,152.7 190.3,158.7 179.7,164.8 		"/>
		<polygon class="st1" points="159.9,184.5 172.6,177.1 172.6,191.8 		"/>
		<polygon class="st1" points="156.4,189.3 170.2,197.3 156.4,205.3 		"/>
		<polygon class="st1" points="135.6,223 151.4,213.9 151.4,232.1 		"/>
		<polygon class="st1" points="133.3,226.5 149.5,235.9 133.3,245.2 		"/>
		<polygon class="st1" points="113.3,261.6 129.2,252.4 129.2,270.8 		"/>
		<polygon class="st1" points="111.4,265.7 126.6,274.5 111.4,283.3 		"/>
		<polygon class="st1" points="114.1,287.3 128.8,278.8 128.8,295.8 		"/>
		<polygon class="st1" points="134.4,305.6 147.3,313 134.4,320.4 		"/>
		<polygon class="st1" points="138.5,325.9 149.9,319.3 149.9,332.5 		"/>
		<polygon class="st1" points="158.3,346.9 166.4,351.6 158.3,356.3 		"/>
		<polygon class="st1" points="164,364.4 170.6,360.7 170.6,368.2 		"/>
		<polygon class="st1" points="182.2,388.3 185.4,390.2 182.2,392 		"/>
		<polygon class="st1" points="189.4,403 191.3,401.9 191.3,404.1 		"/>
		<polygon class="st1" points="205.5,428.7 205.5,428.7 205.5,428.7 		"/>
		<polygon class="st1" points="568.5,81.6 569.5,81 569.5,82.2 		"/>
		<polygon class="st1" points="561.4,68 562.6,68.8 561.4,69.5 		"/>
		<polygon class="st1" points="545.9,43 547.5,42.1 547.5,44 		"/>
		<polygon class="st1" points="546.1,17.3 547.4,16.6 547.4,18.1 		"/>
		<polygon class="st1" points="516.7,16.4 518.3,17.3 516.7,18.3 		"/>
		<polygon class="st1" points="501.3,17.3 503,16.4 503,18.3 		"/>
		<polygon class="st1" points="472.1,16.4 473.9,17.3 472.1,18.3 		"/>
		<polygon class="st1" points="456.7,17.3 458.5,16.3 458.5,18.4 		"/>
		<polygon class="st1" points="427.6,16.3 429.4,17.3 427.6,18.4 		"/>
		<polygon class="st1" points="412.1,17.3 413.9,16.3 413.9,18.4 		"/>
		<polygon class="st1" points="383.1,16.3 384.8,17.3 383.1,18.4 		"/>
		<polygon class="st1" points="367.7,17.3 369.4,16.4 369.4,18.3 		"/>
		<polygon class="st1" points="338.6,16.4 340.2,17.3 338.6,18.3 		"/>
		<polygon class="st1" points="323.2,17.3 324.8,16.4 324.8,18.2 		"/>
		<polygon class="st1" points="294.1,16.4 295.6,17.3 294.1,18.2 		"/>
		<polygon class="st1" points="278.6,17.3 280.3,16.3 280.3,18.3 		"/>
		<polygon class="st1" points="249.3,16 251.6,17.3 249.3,18.7 		"/>
		<polygon class="st1" points="232.9,43 236.4,41 236.4,45.1 		"/>
		<polygon class="st1" points="226.4,53.5 230.6,55.9 226.4,58.3 		"/>
		<polygon class="st1" points="209.4,81.6 214.7,78.5 214.7,84.7 		"/>
		<polygon class="st1" points="203.5,91 209.5,94.5 203.5,97.9 		"/>
		<polygon class="st1" points="185.8,120.2 193.1,115.9 193.1,124.4 		"/>
		<polygon class="st1" points="180.5,128.3 188.8,133 180.5,137.8 		"/>
		<polygon class="st1" points="161.9,158.7 171.7,153.1 171.7,164.4 		"/>
		<polygon class="st1" points="157.4,165.4 168.2,171.6 157.4,177.8 		"/>
		<polygon class="st1" points="137.3,197.3 150.5,189.7 150.5,205 		"/>
		<polygon class="st1" points="133.9,201.9 148.3,210.2 133.9,218.4 		"/>
		<polygon class="st1" points="113.5,235.9 129.1,226.9 129.1,244.9 		"/>
		<polygon class="st1" points="111.2,239.7 126.8,248.7 111.2,257.7 		"/>
		<polygon class="st1" points="91.9,274.5 106.4,266.1 106.4,282.8 		"/>
		<polygon class="st1" points="112.1,292.7 125,300.2 112.1,307.6 		"/>
		<polygon class="st1" points="116,313 127.8,306.2 127.8,319.8 		"/>
		<polygon class="st1" points="135.7,333.5 144.7,338.7 135.7,343.9 		"/>
		<polygon class="st1" points="141,351.6 148.7,347.1 148.7,356.1 		"/>
		<polygon class="st1" points="159.4,374.5 164.2,377.3 159.4,380.1 		"/>
		<polygon class="st1" points="166.3,390.2 169.5,388.3 169.5,392 		"/>
		<polygon class="st1" points="183,415.4 183.8,415.9 183,416.3 		"/>
		<polygon class="st1" points="190.7,428.7 190.7,428.7 190.7,428.7 		"/>
		<polygon class="st1" points="568.5,55.9 569.6,55.3 569.6,56.5 		"/>
		<polygon class="st1" points="561.4,42.3 562.6,43 561.4,43.8 		"/>
		<polygon class="st1" points="539.2,3.9 540.2,4.5 539.2,5.1 		"/>
		<polygon class="st1" points="523.9,4.5 525.1,3.8 525.1,5.1 		"/>
		<polygon class="st1" points="494.6,3.8 495.8,4.5 494.6,5.1 		"/>
		<polygon class="st1" points="479.4,4.5 480.5,3.8 480.5,5.1 		"/>
		<polygon class="st1" points="450.1,3.9 451.1,4.5 450.1,5.1 		"/>
		<polygon class="st1" points="434.9,4.5 435.9,3.9 435.9,5.1 		"/>
		<polygon class="st1" points="405.6,3.9 406.6,4.5 405.6,5.1 		"/>
		<polygon class="st1" points="390.4,4.5 391.4,3.9 391.4,5.1 		"/>
		<polygon class="st1" points="361,3.8 362.1,4.5 361,5.1 		"/>
		<polygon class="st1" points="345.8,4.5 346.9,3.8 346.9,5.1 		"/>
		<polygon class="st1" points="316.5,3.8 317.6,4.5 316.5,5.1 		"/>
		<polygon class="st1" points="301.2,4.5 302.4,3.8 302.4,5.2 		"/>
		<polygon class="st1" points="271.8,3.5 273.4,4.5 271.8,5.4 		"/>
		<polygon class="st1" points="256.2,4.5 258.1,3.4 258.1,5.6 		"/>
		<polygon class="st1" points="233.4,17.3 236.1,15.8 236.1,18.9 		"/>
		<polygon class="st1" points="226.7,28.4 229.9,30.2 226.7,32 		"/>
		<polygon class="st1" points="210.1,55.9 214.4,53.4 214.4,58.4 		"/>
		<polygon class="st1" points="203.9,66 208.7,68.8 203.9,71.5 		"/>
		<polygon class="st1" points="186.9,94.5 192.5,91.2 192.5,97.7 		"/>
		<polygon class="st1" points="181.2,103.8 187.3,107.3 181.2,110.8 		"/>
		<polygon class="st1" points="163.4,133 170.9,128.7 170.9,137.3 		"/>
		<polygon class="st1" points="158.2,141.1 166.5,145.9 158.2,150.7 		"/>
		<polygon class="st1" points="139.5,171.6 149.4,165.9 149.4,177.3 		"/>
		<polygon class="st1" points="135,178 146.2,184.5 135,190.9 		"/>
		<polygon class="st1" points="114.8,210.2 128.4,202.3 128.4,218.1 		"/>
		<polygon class="st1" points="111.6,214.6 126.1,223 111.6,231.4 		"/>
		<polygon class="st1" points="91.6,248.7 106.6,240.1 106.6,257.4 		"/>
		<polygon class="st1" points="89.3,253.2 103.9,261.6 89.3,270 		"/>
		<polygon class="st1" points="89.9,279.9 102.8,287.3 89.9,294.7 		"/>
		<polygon class="st1" points="93.7,300.2 105.5,293.3 105.5,307 		"/>
		<polygon class="st1" points="113.3,320.4 122.7,325.9 113.3,331.3 		"/>
		<polygon class="st1" points="118.5,338.7 126.5,334.1 126.5,343.4 		"/>
		<polygon class="st1" points="136.8,361.1 142.5,364.4 136.8,367.8 		"/>
		<polygon class="st1" points="143.2,377.3 147.6,374.7 147.6,379.9 		"/>
		<polygon class="st1" points="160.4,402 162.2,403 160.4,404.1 		"/>
		<polygon class="st1" points="167.9,415.9 168.7,415.4 168.7,416.3 		"/>
		<polygon class="st1" points="568.5,30.2 569.6,29.6 569.6,30.8 		"/>
		<polygon class="st1" points="561.4,16.8 562.5,17.3 561.4,17.9 		"/>
		<polygon class="st1" points="561.6,-8.7 562.1,-8.4 561.6,-8.1 		"/>
		<polygon class="st1" points="546.5,-8.4 547.1,-8.7 547.1,-8 		"/>
		<polygon class="st1" points="517,-8.8 517.8,-8.4 517,-7.9 		"/>
		<polygon class="st1" points="501.9,-8.4 502.6,-8.8 502.6,-8 		"/>
		<polygon class="st1" points="472.5,-8.7 473.1,-8.4 472.5,-8.1 		"/>
		<polygon class="st1" points="457.5,-8.4 458,-8.7 458,-8.1 		"/>
		<polygon class="st1" points="428,-8.7 428.5,-8.4 428,-8.1 		"/>
		<polygon class="st1" points="413,-8.4 413.5,-8.7 413.5,-8.1 		"/>
		<polygon class="st1" points="383.5,-8.7 384,-8.4 383.5,-8 		"/>
		<polygon class="st1" points="368.3,-8.4 369,-8.8 369,-8 		"/>
		<polygon class="st1" points="338.8,-8.9 339.7,-8.4 338.8,-7.9 		"/>
		<polygon class="st1" points="323.7,-8.4 324.6,-8.9 324.6,-7.8 		"/>
		<polygon class="st1" points="294.2,-9 295.3,-8.4 294.2,-7.7 		"/>
		<polygon class="st1" points="278.8,-8.4 280.2,-9.2 280.2,-7.6 		"/>
		<polygon class="st1" points="249.4,-9.5 251.4,-8.4 249.4,-7.2 		"/>
		<polygon class="st1" points="233.7,-8.4 236,-9.7 236,-7 		"/>
		<polygon class="st1" points="226.9,3 229.5,4.5 226.9,6 		"/>
		<polygon class="st1" points="210.6,30.2 214.1,28.2 214.1,32.2 		"/>
		<polygon class="st1" points="204.2,40.8 208.1,43 204.2,45.3 		"/>
		<polygon class="st1" points="187.6,68.8 192.2,66.1 192.2,71.4 		"/>
		<polygon class="st1" points="181.7,78.9 186.4,81.6 181.7,84.4 		"/>
		<polygon class="st1" points="164.9,107.3 170.2,104.3 170.2,110.4 		"/>
		<polygon class="st1" points="159,116.8 164.9,120.2 159,123.6 		"/>
		<polygon class="st1" points="141.2,145.9 148.6,141.7 148.6,150.1 		"/>
		<polygon class="st1" points="136,154.1 144.1,158.7 136,163.4 		"/>
		<polygon class="st1" points="116.9,184.5 127.4,178.4 127.4,190.5 		"/>
		<polygon class="st1" points="112.5,190.5 124.3,197.3 112.5,204.1 		"/>
		<polygon class="st1" points="92.2,223 106.3,214.9 106.3,231.1 		"/>
		<polygon class="st1" points="89.3,227.5 103.9,235.9 89.3,244.3 		"/>
		<polygon class="st1" points="69.9,261.6 84.1,253.4 84.1,269.8 		"/>
		<polygon class="st1" points="67.4,266.7 80.9,274.5 67.4,282.2 		"/>
		<polygon class="st1" points="71.2,287.3 83.4,280.2 83.4,294.4 		"/>
		<polygon class="st1" points="91,307.5 100.5,313 91,318.5 		"/>
		<polygon class="st1" points="96.1,325.9 104.3,321.1 104.3,330.6 		"/>
		<polygon class="st1" points="114.5,348.1 120.4,351.6 114.5,355 		"/>
		<polygon class="st1" points="120.6,364.4 125.5,361.6 125.5,367.3 		"/>
		<polygon class="st1" points="137.9,388.7 140.4,390.2 137.9,391.6 		"/>
		<polygon class="st1" points="145.1,403 146.7,402.1 146.7,403.9 		"/>
		<polygon class="st1" points="161,428.7 161,428.7 161,428.7 		"/>
		<polygon class="st1" points="568.8,4.5 569.4,4.1 569.4,4.9 		"/>
		<polygon class="st1" points="569.1,-21.2 569.2,-21.3 569.2,-21.2 		"/>
		<polygon class="st1" points="539.4,-21.5 539.8,-21.2 539.4,-21 		"/>
		<polygon class="st1" points="524.4,-21.2 524.8,-21.5 524.8,-21 		"/>
		<polygon class="st1" points="494.9,-21.4 495.2,-21.2 494.9,-21.1 		"/>
		<polygon class="st1" points="480,-21.2 480.2,-21.3 480.2,-21.1 		"/>
		<polygon class="st1" points="450.4,-21.3 450.5,-21.2 450.4,-21.2 		"/>
		<polygon class="st1" points="435.5,-21.2 435.6,-21.3 435.6,-21.2 		"/>
		<polygon class="st1" points="405.8,-21.4 406.1,-21.2 405.8,-21.1 		"/>
		<polygon class="st1" points="390.9,-21.2 391.2,-21.4 391.2,-21.1 		"/>
		<polygon class="st1" points="361.2,-21.5 361.7,-21.2 361.2,-20.9 		"/>
		<polygon class="st1" points="346.1,-21.2 346.8,-21.6 346.8,-20.8 		"/>
		<polygon class="st1" points="316.5,-21.8 317.5,-21.2 316.5,-20.7 		"/>
		<polygon class="st1" points="301.3,-21.2 302.4,-21.8 302.4,-20.6 		"/>
		<polygon class="st1" points="271.8,-22.1 273.3,-21.2 271.8,-20.4 		"/>
		<polygon class="st1" points="256.2,-21.2 258.1,-22.3 258.1,-20.2 		"/>
		<polygon class="st1" points="227,-22.6 229.4,-21.2 227,-19.9 		"/>
		<polygon class="st1" points="211,4.5 213.9,2.8 213.9,6.2 		"/>
		<polygon class="st1" points="204.4,15.5 207.7,17.3 204.4,19.2 		"/>
		<polygon class="st1" points="188,43 192,40.7 192,45.4 		"/>
		<polygon class="st1" points="181.8,53.4 186.1,55.9 181.8,58.4 		"/>
		<polygon class="st1" points="165.6,81.6 169.8,79.2 169.8,84 		"/>
		<polygon class="st1" points="159.6,92 163.8,94.5 159.6,96.9 		"/>
		<polygon class="st1" points="142.8,120.2 147.8,117.3 147.8,123 		"/>
		<polygon class="st1" points="136.8,129.8 142.4,133 136.8,136.3 		"/>
		<polygon class="st1" points="119.1,158.7 126.2,154.6 126.2,162.9 		"/>
		<polygon class="st1" points="113.7,166.8 121.9,171.6 113.7,176.4 		"/>
		<polygon class="st1" points="94.1,197.3 105.4,190.8 105.4,203.8 		"/>
		<polygon class="st1" points="90,202.9 102.6,210.2 90,217.5 		"/>
		<polygon class="st1" points="69.8,235.9 84.1,227.7 84.1,244.1 		"/>
		<polygon class="st1" points="67.2,240.5 81.4,248.7 67.2,257 		"/>
		<polygon class="st1" points="48.2,274.5 61.5,266.8 61.5,282.1 		"/>
		<polygon class="st1" points="68.5,294.2 78.8,300.2 68.5,306.1 		"/>
		<polygon class="st1" points="73.6,313 82.2,308 82.2,318 		"/>
		<polygon class="st1" points="92.2,335.3 98.1,338.7 92.2,342.1 		"/>
		<polygon class="st1" points="98.3,351.6 103.2,348.8 103.2,354.4 		"/>
		<polygon class="st1" points="115.4,375.6 118.4,377.3 115.4,379 		"/>
		<polygon class="st1" points="122.5,390.2 124.5,389 124.5,391.3 		"/>
		<polygon class="st1" points="138.5,415.6 139,415.9 138.5,416.2 		"/>
		<polygon class="st1" points="546.9,-34.1 546.9,-34.1 546.9,-34.1 		"/>
		<polygon class="st1" points="517.2,-34.1 517.3,-34.1 517.2,-34 		"/>
		<polygon class="st1" points="383.6,-34.2 383.8,-34.1 383.6,-34 		"/>
		<polygon class="st1" points="368.5,-34.1 368.9,-34.3 368.9,-33.9 		"/>
		<polygon class="st1" points="338.9,-34.5 339.6,-34.1 338.9,-33.7 		"/>
		<polygon class="st1" points="323.7,-34.1 324.5,-34.6 324.5,-33.6 		"/>
		<polygon class="st1" points="294.2,-34.8 295.3,-34.1 294.2,-33.4 		"/>
		<polygon class="st1" points="278.8,-34.1 280.2,-34.9 280.2,-33.3 		"/>
		<polygon class="st1" points="249.4,-35.2 251.3,-34.1 249.4,-33 		"/>
		<polygon class="st1" points="233.8,-34.1 235.9,-35.3 235.9,-32.9 		"/>
		<polygon class="st1" points="211.2,-21.2 213.8,-22.8 213.8,-19.7 		"/>
		<polygon class="st1" points="204.5,-10.1 207.4,-8.4 204.5,-6.7 		"/>
		<polygon class="st1" points="188.3,17.3 191.8,15.3 191.8,19.3 		"/>
		<polygon class="st1" points="182,28 185.7,30.2 182,32.4 		"/>
		<polygon class="st1" points="165.9,55.9 169.7,53.7 169.7,58.1 		"/>
		<polygon class="st1" points="159.8,66.6 163.4,68.8 159.8,70.9 		"/>
		<polygon class="st1" points="143.8,94.5 147.3,92.5 147.3,96.5 		"/>
		<polygon class="st1" points="137.5,105.3 141.1,107.3 137.5,109.4 		"/>
		<polygon class="st1" points="120.8,133 125.4,130.4 125.4,135.7 		"/>
		<polygon class="st1" points="114.6,142.8 120.1,145.9 114.6,149 		"/>
		<polygon class="st1" points="96.6,171.6 104.1,167.3 104.1,175.9 		"/>
		<polygon class="st1" points="91.1,179.2 100.3,184.5 91.1,189.8 		"/>
		<polygon class="st1" points="71.1,210.2 83.4,203.1 83.4,217.3 		"/>
		<polygon class="st1" points="67.5,215.3 80.8,223 67.5,230.7 		"/>
		<polygon class="st1" points="47.6,248.7 61.8,240.5 61.8,256.9 		"/>
		<polygon class="st1" points="45,253.5 59,261.6 45,269.7 		"/>
		<polygon class="st1" points="45.7,280.5 57.4,287.3 45.7,294.1 		"/>
		<polygon class="st1" points="50.5,300.2 60.4,294.4 60.4,305.9 		"/>
		<polygon class="st1" points="69.7,322.1 76.3,325.9 69.7,329.7 		"/>
		<polygon class="st1" points="75.9,338.7 81,335.8 81,341.7 		"/>
		<polygon class="st1" points="93.1,362.6 96.3,364.4 93.1,366.2 		"/>
		<polygon class="st1" points="100.1,377.3 102.3,376 102.3,378.6 		"/>
		<polygon class="st1" points="116.2,402.6 116.9,403 116.2,403.4 		"/>
		<polygon class="st1" points="123.7,415.9 123.9,415.8 123.9,416 		"/>
		<polygon class="st1" points="391,-46.9 391.1,-47 391.1,-46.9 		"/>
		<polygon class="st1" points="361.3,-47.2 361.6,-46.9 361.3,-46.7 		"/>
		<polygon class="st1" points="346.2,-46.9 346.7,-47.2 346.7,-46.6 		"/>
		<polygon class="st1" points="316.6,-47.4 317.4,-46.9 316.6,-46.5 		"/>
		<polygon class="st1" points="301.3,-46.9 302.3,-47.5 302.3,-46.4 		"/>
		<polygon class="st1" points="271.8,-47.7 273.2,-46.9 271.8,-46.1 		"/>
		<polygon class="st1" points="256.4,-46.9 258,-47.9 258,-46 		"/>
		<polygon class="st1" points="227.1,-48.1 229.2,-46.9 227.1,-45.8 		"/>
		<polygon class="st1" points="211.5,-46.9 213.7,-48.2 213.7,-45.7 		"/>
		<polygon class="st1" points="204.7,-35.6 207.2,-34.1 204.7,-32.6 		"/>
		<polygon class="st1" points="188.6,-8.4 191.7,-10.2 191.7,-6.6 		"/>
		<polygon class="st1" points="182.1,2.5 185.5,4.5 182.1,6.4 		"/>
		<polygon class="st1" points="166.1,30.2 169.6,28.2 169.6,32.2 		"/>
		<polygon class="st1" points="159.8,41.1 163.3,43 159.8,45 		"/>
		<polygon class="st1" points="144.2,68.8 147.1,67.1 147.1,70.5 		"/>
		<polygon class="st1" points="137.8,80.1 140.5,81.6 137.8,83.2 		"/>
		<polygon class="st1" points="122,107.3 124.8,105.8 124.8,108.9 		"/>
		<polygon class="st1" points="115.4,118.4 118.5,120.2 115.4,122 		"/>
		<polygon class="st1" points="98.5,145.9 103.1,143.3 103.1,148.5 		"/>
		<polygon class="st1" points="92.3,155.5 97.9,158.7 92.3,162 		"/>
		<polygon class="st1" points="73.5,184.5 82.2,179.4 82.2,189.5 		"/>
		<polygon class="st1" points="68.4,191.2 78.9,197.3 68.4,203.4 		"/>
		<polygon class="st1" points="48.2,223 61.5,215.4 61.5,230.7 		"/>
		<polygon class="st1" points="44.9,227.8 59,235.9 44.9,244 		"/>
		<polygon class="st1" points="25.2,261.6 39.6,253.3 39.6,269.9 		"/>
		<polygon class="st1" points="22.8,266.5 36.5,274.5 22.8,282.4 		"/>
		<polygon class="st1" points="26.8,287.3 38.8,280.4 38.8,294.2 		"/>
		<polygon class="st1" points="47,308.5 54.9,313 47,317.6 		"/>
		<polygon class="st1" points="53,325.9 59.1,322.3 59.1,329.4 		"/>
		<polygon class="st1" points="70.8,349.6 74.2,351.6 70.8,353.6 		"/>
		<polygon class="st1" points="77.7,364.4 80.1,363 80.1,365.8 		"/>
		<polygon class="st1" points="93.9,389.7 94.7,390.2 93.9,390.6 		"/>
		<polygon class="st1" points="101.4,403 101.7,402.8 101.7,403.2 		"/>
		<polygon class="st1" points="383.6,-59.9 383.7,-59.8 383.6,-59.7 		"/>
		<polygon class="st1" points="368.7,-59.8 368.9,-59.9 368.9,-59.7 		"/>
		<polygon class="st1" points="338.9,-60.1 339.5,-59.8 338.9,-59.5 		"/>
		<polygon class="st1" points="323.8,-59.8 324.5,-60.2 324.5,-59.4 		"/>
		<polygon class="st1" points="294.2,-60.4 295.3,-59.8 294.2,-59.2 		"/>
		<polygon class="st1" points="278.9,-59.8 280.2,-60.5 280.2,-59.1 		"/>
		<polygon class="st1" points="249.5,-60.7 251.1,-59.8 249.5,-58.9 		"/>
		<polygon class="st1" points="234,-59.8 235.8,-60.9 235.8,-58.8 		"/>
		<polygon class="st1" points="204.8,-61.1 207,-59.8 204.8,-58.6 		"/>
		<polygon class="st1" points="188.8,-34.1 191.6,-35.7 191.6,-32.5 		"/>
		<polygon class="st1" points="182.2,-23 185.3,-21.2 182.2,-19.5 		"/>
		<polygon class="st1" points="166.2,4.5 169.5,2.6 169.5,6.3 		"/>
		<polygon class="st1" points="159.9,15.5 163.1,17.3 159.9,19.2 		"/>
		<polygon class="st1" points="144.2,43 147.1,41.4 147.1,44.7 		"/>
		<polygon class="st1" points="137.9,54.4 140.4,55.9 137.9,57.4 		"/>
		<polygon class="st1" points="122.6,81.6 124.5,80.5 124.5,82.7 		"/>
		<polygon class="st1" points="115.8,93.4 117.7,94.5 115.8,95.5 		"/>
		<polygon class="st1" points="100.1,120.2 102.4,118.9 102.4,121.5 		"/>
		<polygon class="st1" points="93.2,131.4 96.1,133 93.2,134.7 		"/>
		<polygon class="st1" points="76.1,158.7 81,155.9 81,161.6 		"/>
		<polygon class="st1" points="69.8,167.9 76.1,171.6 69.8,175.3 		"/>
		<polygon class="st1" points="50.2,197.3 60.5,191.4 60.5,203.3 		"/>
		<polygon class="st1" points="45.7,203.3 57.6,210.2 45.7,217.1 		"/>
		<polygon class="st1" points="25.2,235.9 39.6,227.6 39.6,244.2 		"/>
		<polygon class="st1" points="22.4,240.2 37.3,248.7 22.4,257.3 		"/>
		<polygon class="st1" points="3.1,274.5 17.2,266.3 17.2,282.6 		"/>
		<polygon class="st1" points="24,294.3 34.1,300.2 24,306 		"/>
		<polygon class="st1" points="29.6,313 37.4,308.5 37.4,317.6 		"/>
		<polygon class="st1" points="48.2,336.3 52.4,338.7 48.2,341.2 		"/>
		<polygon class="st1" points="55.1,351.6 58.1,349.9 58.1,353.3 		"/>
		<polygon class="st1" points="71.5,376.6 72.7,377.3 71.5,378 		"/>
		<polygon class="st1" points="79.1,390.2 79.5,389.9 79.5,390.4 		"/>
		<polygon class="st1" points="391.1,-72.7 391.1,-72.7 391.1,-72.7 		"/>
		<polygon class="st1" points="361.3,-72.8 361.6,-72.7 361.3,-72.5 		"/>
		<polygon class="st1" points="346.3,-72.7 346.7,-72.9 346.7,-72.4 		"/>
		<polygon class="st1" points="316.6,-73.1 317.3,-72.7 316.6,-72.2 		"/>
		<polygon class="st1" points="301.4,-72.7 302.3,-73.2 302.3,-72.1 		"/>
		<polygon class="st1" points="271.9,-73.4 273.2,-72.7 271.9,-71.9 		"/>
		<polygon class="st1" points="256.5,-72.7 258,-73.5 258,-71.8 		"/>
		<polygon class="st1" points="227.2,-73.7 229,-72.7 227.2,-71.6 		"/>
		<polygon class="st1" points="211.6,-72.7 213.6,-73.8 213.6,-71.5 		"/>
		<polygon class="st1" points="189.1,-59.8 191.4,-61.1 191.4,-58.5 		"/>
		<polygon class="st1" points="182.4,-48.4 184.9,-46.9 182.4,-45.5 		"/>
		<polygon class="st1" points="166.4,-21.2 169.4,-23 169.4,-19.5 		"/>
		<polygon class="st1" points="160,-10.1 163,-8.4 160,-6.6 		"/>
		<polygon class="st1" points="144.2,17.3 147.1,15.7 147.1,19 		"/>
		<polygon class="st1" points="137.8,28.7 140.4,30.2 137.8,31.7 		"/>
		<polygon class="st1" points="122.6,55.9 124.5,54.8 124.5,57 		"/>
		<polygon class="st1" points="115.9,67.9 117.5,68.8 115.9,69.7 		"/>
		<polygon class="st1" points="100.9,94.5 101.9,93.9 101.9,95.1 		"/>
		<polygon class="st1" points="93.8,106.6 95,107.3 93.8,108 		"/>
		<polygon class="st1" points="77.8,133 80.1,131.7 80.1,134.4 		"/>
		<polygon class="st1" points="70.8,144 74.1,145.9 70.8,147.8 		"/>
		<polygon class="st1" points="53.1,171.6 59.1,168.1 59.1,175.1 		"/>
		<polygon class="st1" points="46.9,179.8 55.1,184.5 46.9,189.2 		"/>
		<polygon class="st1" points="26.7,210.2 38.8,203.2 38.8,217.2 		"/>
		<polygon class="st1" points="22.8,215.1 36.5,223 22.8,230.9 		"/>
		<polygon class="st1" points="2.3,248.7 17.6,239.9 17.6,257.6 		"/>
		<polygon class="st1" points="0,252.8 15.3,261.6 0,270.4 		"/>
		<polygon class="st1" points="0.8,279.9 13.7,287.3 0.8,294.7 		"/>
		<polygon class="st1" points="5.6,300.2 16,294.1 16,306.2 		"/>
		<polygon class="st1" points="25.4,322.5 31.3,325.9 25.4,329.3 		"/>
		<polygon class="st1" points="32.1,338.7 36.2,336.4 36.2,341.1 		"/>
		<polygon class="st1" points="49.1,363.5 50.7,364.4 49.1,365.4 		"/>
		<polygon class="st1" points="56.5,377.3 57.3,376.8 57.3,377.8 		"/>
		<polygon class="st1" points="383.6,-85.6 383.7,-85.5 383.6,-85.5 		"/>
		<polygon class="st1" points="368.7,-85.5 368.9,-85.6 368.9,-85.4 		"/>
		<polygon class="st1" points="338.9,-85.8 339.5,-85.5 338.9,-85.2 		"/>
		<polygon class="st1" points="323.9,-85.5 324.5,-85.9 324.5,-85.2 		"/>
		<polygon class="st1" points="294.3,-86.1 295.2,-85.5 294.3,-85 		"/>
		<polygon class="st1" points="279,-85.5 280.1,-86.2 280.1,-84.8 		"/>
		<polygon class="st1" points="249.5,-86.4 251,-85.5 249.5,-84.6 		"/>
		<polygon class="st1" points="234.1,-85.5 235.7,-86.4 235.7,-84.6 		"/>
		<polygon class="st1" points="204.9,-86.6 206.8,-85.5 204.9,-84.4 		"/>
		<polygon class="st1" points="189.3,-85.5 191.3,-86.7 191.3,-84.4 		"/>
		<polygon class="st1" points="182.5,-73.9 184.7,-72.7 182.5,-71.4 		"/>
		<polygon class="st1" points="166.7,-46.9 169.2,-48.4 169.2,-45.5 		"/>
		<polygon class="st1" points="160,-35.7 162.8,-34.1 160,-32.5 		"/>
		<polygon class="st1" points="144.3,-8.4 147.1,-10 147.1,-6.8 		"/>
		<polygon class="st1" points="137.8,2.9 140.5,4.5 137.8,6 		"/>
		<polygon class="st1" points="122.4,30.2 124.6,29 124.6,31.4 		"/>
		<polygon class="st1" points="115.8,42 117.6,43 115.8,44.1 		"/>
		<polygon class="st1" points="100.9,68.8 101.9,68.2 101.9,69.3 		"/>
		<polygon class="st1" points="94,81.3 94.6,81.6 94,82 		"/>
		<polygon class="st1" points="78.9,107.3 79.5,107 79.5,107.7 		"/>
		<polygon class="st1" points="71.6,119.6 72.6,120.2 71.6,120.8 		"/>
		<polygon class="st1" points="55.2,145.9 58,144.3 58,147.5 		"/>
		<polygon class="st1" points="48.3,156.4 52.4,158.7 48.3,161.1 		"/>
		<polygon class="st1" points="29.4,184.5 37.5,179.8 37.5,189.1 		"/>
		<polygon class="st1" points="23.9,191.3 34.3,197.3 23.9,203.3 		"/>
		<polygon class="st1" points="3.2,223 17.2,215 17.2,231.1 		"/>
		<polygon class="st1" points="0,227.1 15.3,235.9 0,244.7 		"/>
		<polygon class="st1" points="2.3,308.2 10.7,313 2.3,317.9 		"/>
		<polygon class="st1" points="8.4,325.9 14.6,322.3 14.6,329.4 		"/>
		<polygon class="st1" points="26.5,350 29.2,351.6 26.5,353.1 		"/>
		<polygon class="st1" points="33.8,364.4 35.3,363.6 35.3,365.3 		"/>
		<polygon class="st1" points="49.6,390.2 49.6,390.2 49.6,390.2 		"/>
		<polygon class="st1" points="405.9,-98.4 405.9,-98.4 405.9,-98.4 		"/>
		<polygon class="st1" points="391,-98.4 391.1,-98.4 391.1,-98.3 		"/>
		<polygon class="st1" points="361.3,-98.6 361.6,-98.4 361.3,-98.2 		"/>
		<polygon class="st1" points="346.2,-98.4 346.7,-98.7 346.7,-98.1 		"/>
		<polygon class="st1" points="316.6,-98.8 317.3,-98.4 316.6,-97.9 		"/>
		<polygon class="st1" points="301.4,-98.4 302.3,-98.9 302.3,-97.8 		"/>
		<polygon class="st1" points="271.9,-99.1 273.1,-98.4 271.9,-97.7 		"/>
		<polygon class="st1" points="256.5,-98.4 257.9,-99.2 257.9,-97.6 		"/>
		<polygon class="st1" points="227.2,-99.3 228.9,-98.4 227.2,-97.4 		"/>
		<polygon class="st1" points="211.8,-98.4 213.5,-99.4 213.5,-97.4 		"/>
		<polygon class="st1" points="182.6,-99.5 184.6,-98.4 182.6,-97.2 		"/>
		<polygon class="st1" points="166.9,-72.7 169.1,-73.9 169.1,-71.4 		"/>
		<polygon class="st1" points="160.2,-61.2 162.6,-59.8 160.2,-58.4 		"/>
		<polygon class="st1" points="144.4,-34.1 147,-35.6 147,-32.6 		"/>
		<polygon class="st1" points="137.8,-22.8 140.5,-21.2 137.8,-19.7 		"/>
		<polygon class="st1" points="122.3,4.5 124.6,3.1 124.6,5.8 		"/>
		<polygon class="st1" points="115.7,16.1 117.9,17.3 115.7,18.6 		"/>
		<polygon class="st1" points="100.7,43 102,42.3 102,43.8 		"/>
		<polygon class="st1" points="93.9,55.4 94.8,55.9 93.9,56.4 		"/>
		<polygon class="st1" points="79.2,81.6 79.4,81.5 79.4,81.7 		"/>
		<polygon class="st1" points="71.9,94.4 72,94.5 71.9,94.5 		"/>
		<polygon class="st1" points="56.6,120.2 57.3,119.8 57.3,120.5 		"/>
		<polygon class="st1" points="49.2,132.2 50.6,133 49.2,133.9 		"/>
		<polygon class="st1" points="32.2,158.7 36.1,156.5 36.1,161 		"/>
		<polygon class="st1" points="25.5,168.3 31.2,171.6 25.5,174.9 		"/>
		<polygon class="st1" points="5.5,197.3 16,191.2 16,203.4 		"/>
		<polygon class="st1" points="0.9,202.8 13.6,210.2 0.9,217.5 		"/>
		<polygon class="st1" points="3.7,336.2 8,338.7 3.7,341.2 		"/>
		<polygon class="st1" points="10.7,351.6 13.5,350 13.5,353.2 		"/>
		<polygon class="st1" points="27.2,377 27.7,377.3 27.2,377.6 		"/>
		<polygon class="st1" points="413.3,-111.2 413.3,-111.2 413.3,-111.2 		"/>
		<polygon class="st1" points="383.6,-111.3 383.8,-111.2 383.6,-111.1 		"/>
		<polygon class="st1" points="368.6,-111.2 368.9,-111.4 368.9,-111 		"/>
		<polygon class="st1" points="338.9,-111.5 339.5,-111.2 338.9,-110.9 		"/>
		<polygon class="st1" points="323.8,-111.2 324.5,-111.6 324.5,-110.8 		"/>
		<polygon class="st1" points="294.2,-111.8 295.3,-111.2 294.2,-110.6 		"/>
		<polygon class="st1" points="279,-111.2 280.1,-111.9 280.1,-110.6 		"/>
		<polygon class="st1" points="249.6,-112 251,-111.2 249.6,-110.4 		"/>
		<polygon class="st1" points="234.2,-111.2 235.7,-112.1 235.7,-110.3 		"/>
		<polygon class="st1" points="204.9,-112.3 206.7,-111.2 204.9,-110.2 		"/>
		<polygon class="st1" points="189.4,-111.2 191.3,-112.4 191.3,-110.1 		"/>
		<polygon class="st1" points="167,-98.4 169.1,-99.6 169.1,-97.2 		"/>
		<polygon class="st1" points="160.3,-86.8 162.4,-85.5 160.3,-84.3 		"/>
		<polygon class="st1" points="144.5,-59.8 146.9,-61.2 146.9,-58.4 		"/>
		<polygon class="st1" points="137.9,-48.4 140.4,-46.9 137.9,-45.5 		"/>
		<polygon class="st1" points="122.2,-21.2 124.7,-22.7 124.7,-19.8 		"/>
		<polygon class="st1" points="115.7,-9.7 118,-8.4 115.7,-7 		"/>
		<polygon class="st1" points="100.4,17.3 102.2,16.3 102.2,18.4 		"/>
		<polygon class="st1" points="93.7,29.4 95.1,30.2 93.7,31 		"/>
		<polygon class="st1" points="79,55.9 79.5,55.6 79.5,56.2 		"/>
		<polygon class="st1" points="71.8,68.7 72,68.8 71.8,68.9 		"/>
		<polygon class="st1" points="49.6,107.3 49.6,107.3 49.6,107.3 		"/>
		<polygon class="st1" points="34,133 35.2,132.3 35.2,133.8 		"/>
		<polygon class="st1" points="26.6,144.6 28.9,145.9 26.6,147.2 		"/>
		<polygon class="st1" points="8.7,171.6 14.4,168.3 14.4,174.9 		"/>
		<polygon class="st1" points="2.4,179.7 10.6,184.5 2.4,189.2 		"/>
		<polygon class="st1" points="4.6,363.5 6.2,364.4 4.6,365.4 		"/>
		<polygon class="st1" points="12.1,377.3 12.7,376.9 12.7,377.7 		"/>
		<polygon class="st1" points="405.9,-124.1 405.9,-124.1 405.9,-124.1 		"/>
		<polygon class="st1" points="391,-124.1 391.1,-124.1 391.1,-124 		"/>
		<polygon class="st1" points="361.2,-124.3 361.7,-124.1 361.2,-123.8 		"/>
		<polygon class="st1" points="346.2,-124.1 346.7,-124.4 346.7,-123.8 		"/>
		<polygon class="st1" points="316.6,-124.6 317.4,-124.1 316.6,-123.6 		"/>
		<polygon class="st1" points="301.4,-124.1 302.3,-124.6 302.3,-123.5 		"/>
		<polygon class="st1" points="271.9,-124.8 273.1,-124.1 271.9,-123.4 		"/>
		<polygon class="st1" points="256.5,-124.1 257.9,-124.9 257.9,-123.3 		"/>
		<polygon class="st1" points="227.2,-125 228.9,-124.1 227.2,-123.2 		"/>
		<polygon class="st1" points="211.8,-124.1 213.5,-125.1 213.5,-123.1 		"/>
		<polygon class="st1" points="182.6,-125.2 184.5,-124.1 182.6,-123 		"/>
		<polygon class="st1" points="167,-124.1 169.1,-125.3 169.1,-122.9 		"/>
		<polygon class="st1" points="160.3,-112.5 162.4,-111.2 160.3,-110 		"/>
		<polygon class="st1" points="144.6,-85.5 146.9,-86.8 146.9,-84.2 		"/>
		<polygon class="st1" points="137.9,-74 140.3,-72.7 137.9,-71.3 		"/>
		<polygon class="st1" points="122.2,-46.9 124.7,-48.4 124.7,-45.5 		"/>
		<polygon class="st1" points="115.6,-35.5 118.1,-34.1 115.6,-32.6 		"/>
		<polygon class="st1" points="100.1,-8.4 102.3,-9.6 102.3,-7.1 		"/>
		<polygon class="st1" points="93.6,3.4 95.4,4.5 93.6,5.6 		"/>
		<polygon class="st1" points="78.6,30.2 79.7,29.5 79.7,30.8 		"/>
		<polygon class="st1" points="71.7,42.7 72.4,43 71.7,43.4 		"/>
		<polygon class="st1" points="57.1,68.8 57.1,68.8 57.1,68.8 		"/>
		<polygon class="st1" points="27.3,120.1 27.5,120.2 27.3,120.3 		"/>
		<polygon class="st1" points="11.1,145.9 13.3,144.6 13.3,147.2 		"/>
		<polygon class="st1" points="3.9,156.6 7.6,158.7 3.9,160.9 		"/>
		<polygon class="st1" points="144.6,-111.2 146.9,-112.5 146.9,-109.9 		"/>
		<polygon class="st1" points="137.9,-99.7 140.2,-98.4 137.9,-97 		"/>
		<polygon class="st1" points="122.3,-72.7 124.7,-74 124.7,-71.3 		"/>
		<polygon class="st1" points="115.6,-61.2 118.1,-59.8 115.6,-58.4 		"/>
		<polygon class="st1" points="100,-34.1 102.4,-35.5 102.4,-32.7 		"/>
		<polygon class="st1" points="93.4,-22.6 95.7,-21.2 93.4,-19.9 		"/>
		<polygon class="st1" points="78.2,4.5 79.9,3.5 79.9,5.4 		"/>
		<polygon class="st1" points="71.5,16.6 72.8,17.3 71.5,18.1 		"/>
		<polygon class="st1" points="56.7,43 57.3,42.7 57.3,43.4 		"/>
		<polygon class="st1" points="49.6,55.8 49.8,55.9 49.6,56 		"/>
		<polygon class="st1" points="12.4,120.2 12.6,120.1 12.6,120.3 		"/>
		<polygon class="st1" points="4.8,132.4 5.8,133 4.8,133.6 		"/>
		<polygon class="st1" points="137.9,-125.4 140.3,-124.1 137.9,-122.7 		"/>
		<polygon class="st1" points="122.3,-98.4 124.7,-99.8 124.7,-97 		"/>
		<polygon class="st1" points="115.6,-86.9 118,-85.5 115.6,-84.1 		"/>
		<polygon class="st1" points="99.9,-59.8 102.4,-61.2 102.4,-58.4 		"/>
		<polygon class="st1" points="93.4,-48.4 95.8,-46.9 93.4,-45.5 		"/>
		<polygon class="st1" points="77.9,-21.2 80.1,-22.5 80.1,-20 		"/>
		<polygon class="st1" points="71.3,-9.5 73.2,-8.4 71.3,-7.3 		"/>
		<polygon class="st1" points="56.2,17.3 57.5,16.6 57.5,18.1 		"/>
		<polygon class="st1" points="49.3,29.6 50.3,30.2 49.3,30.7 		"/>
		<polygon class="st1" points="34.6,55.9 34.9,55.8 34.9,56 		"/>
		<polygon class="st1" points="122.2,-124.1 124.7,-125.5 124.7,-122.7 		"/>
		<polygon class="st1" points="115.6,-112.7 118.1,-111.2 115.6,-109.8 		"/>
		<polygon class="st1" points="99.9,-85.5 102.4,-87 102.4,-84.1 		"/>
		<polygon class="st1" points="93.3,-74.1 95.9,-72.7 93.3,-71.2 		"/>
		<polygon class="st1" points="77.7,-46.9 80.1,-48.4 80.1,-45.5 		"/>
		<polygon class="st1" points="71.1,-35.4 73.5,-34.1 71.1,-32.7 		"/>
		<polygon class="st1" points="55.8,-8.4 57.7,-9.5 57.7,-7.3 		"/>
		<polygon class="st1" points="49.1,3.5 50.7,4.5 49.1,5.4 		"/>
		<polygon class="st1" points="34.1,30.2 35.1,29.6 35.1,30.8 		"/>
		<polygon class="st1" points="27.2,42.7 27.8,43 27.2,43.4 		"/>
		<polygon class="st1" points="99.8,-111.2 102.5,-112.7 102.5,-109.7 		"/>
		<polygon class="st1" points="93.3,-99.9 95.9,-98.4 93.3,-96.8 		"/>
		<polygon class="st1" points="77.6,-72.7 80.2,-74.2 80.2,-71.1 		"/>
		<polygon class="st1" points="71.1,-61.3 73.6,-59.8 71.1,-58.3 		"/>
		<polygon class="st1" points="55.5,-34.1 57.9,-35.5 57.9,-32.7 		"/>
		<polygon class="st1" points="48.9,-22.5 51.1,-21.2 48.9,-20 		"/>
		<polygon class="st1" points="33.7,4.5 35.4,3.5 35.4,5.5 		"/>
		<polygon class="st1" points="26.9,16.5 28.3,17.3 26.9,18.1 		"/>
		<polygon class="st1" points="12.1,43 12.7,42.7 12.7,43.4 		"/>
		<polygon class="st1" points="5,55.7 5.3,55.9 5,56.1 		"/>
		<polygon class="st1" points="93.3,-125.6 96,-124.1 93.3,-122.5 		"/>
		<polygon class="st1" points="77.5,-98.4 80.2,-100 80.2,-96.8 		"/>
		<polygon class="st1" points="71,-87.1 73.7,-85.5 71,-83.9 		"/>
		<polygon class="st1" points="55.3,-59.8 57.9,-61.3 57.9,-58.3 		"/>
		<polygon class="st1" points="48.8,-48.4 51.3,-46.9 48.8,-45.5 		"/>
		<polygon class="st1" points="33.3,-21.2 35.6,-22.6 35.6,-19.9 		"/>
		<polygon class="st1" points="26.7,-9.6 28.7,-8.4 26.7,-7.2 		"/>
		<polygon class="st1" points="11.5,17.3 13,16.5 13,18.2 		"/>
		<polygon class="st1" points="4.7,29.6 5.8,30.2 4.7,30.8 		"/>
		<polygon class="st1" points="77.5,-124.1 80.2,-125.7 80.2,-122.5 		"/>
		<polygon class="st1" points="71,-112.9 73.8,-111.2 71,-109.6 		"/>
		<polygon class="st1" points="55.2,-85.5 58,-87.2 58,-83.9 		"/>
		<polygon class="st1" points="48.7,-74.2 51.5,-72.7 48.7,-71.1 		"/>
		<polygon class="st1" points="33,-46.9 35.7,-48.5 35.7,-45.4 		"/>
		<polygon class="st1" points="26.5,-35.6 29.1,-34.1 26.5,-32.6 		"/>
		<polygon class="st1" points="11.1,-8.4 13.2,-9.6 13.2,-7.2 		"/>
		<polygon class="st1" points="4.5,3.4 6.3,4.5 4.5,5.5 		"/>
		<polygon class="st1" points="55.1,-111.2 58.1,-112.9 58.1,-109.5 		"/>
		<polygon class="st1" points="48.6,-100.1 51.6,-98.4 48.6,-96.7 		"/>
		<polygon class="st1" points="32.9,-72.7 35.7,-74.3 35.7,-71 		"/>
		<polygon class="st1" points="26.4,-61.5 29.3,-59.8 26.4,-58.2 		"/>
		<polygon class="st1" points="10.8,-34.1 13.4,-35.6 13.4,-32.6 		"/>
		<polygon class="st1" points="4.3,-22.6 6.7,-21.2 4.3,-19.8 		"/>
		<polygon class="st1" points="48.6,-125.8 51.6,-124.1 48.6,-122.4 		"/>
		<polygon class="st1" points="32.7,-98.4 35.8,-100.1 35.8,-96.6 		"/>
		<polygon class="st1" points="26.4,-87.3 29.4,-85.5 26.4,-83.8 		"/>
		<polygon class="st1" points="10.6,-59.8 13.5,-61.5 13.5,-58.2 		"/>
		<polygon class="st1" points="4.2,-48.6 7,-46.9 4.2,-45.3 		"/>
		<polygon class="st1" points="32.7,-124.1 35.8,-125.9 35.8,-122.3 		"/>
		<polygon class="st1" points="26.3,-113.1 29.5,-111.2 26.3,-109.4 		"/>
		<polygon class="st1" points="10.5,-85.5 13.6,-87.3 13.6,-83.7 		"/>
		<polygon class="st1" points="4.1,-74.4 7.2,-72.7 4.1,-70.9 		"/>
		<polygon class="st1" points="10.4,-111.2 13.6,-113.1 13.6,-109.4 		"/>
		<polygon class="st1" points="4,-100.2 7.2,-98.4 4,-96.5 		"/>
		<polygon class="st1" points="4,-126 7.3,-124.1 4,-122.2 		"/>
	</g>
	<g>
		<polygon class="st1" points="373,391.3 373,391.3 373,391.3 		"/>
		<polygon class="st1" points="380.4,378.5 380.4,378.5 380.4,378.5 		"/>
		<polygon class="st1" points="358.1,417.1 358.2,417 358.2,417.1 		"/>
		<polygon class="st1" points="372.9,416.9 373.2,417.1 372.9,417.2 		"/>
		<polygon class="st1" points="380.2,404.2 380.5,404 380.5,404.4 		"/>
		<polygon class="st1" points="395.2,378.4 395.4,378.5 395.2,378.6 		"/>
		<polygon class="st1" points="402.6,365.6 402.7,365.6 402.7,365.7 		"/>
		<polygon class="st1" points="417.5,339.9 417.5,339.9 417.5,339.9 		"/>
		<polygon class="st1" points="350.7,429.9 350.8,429.9 350.7,430 		"/>
		<polygon class="st1" points="380.1,429.9 380.6,429.6 380.6,430.2 		"/>
		<polygon class="st1" points="395.1,403.9 395.5,404.2 395.1,404.4 		"/>
		<polygon class="st1" points="402.4,391.3 402.8,391.1 402.8,391.6 		"/>
		<polygon class="st1" points="417.4,365.5 417.7,365.6 417.4,365.8 		"/>
		<polygon class="st1" points="424.8,352.8 425,352.6 425,352.9 		"/>
		<polygon class="st1" points="439.7,327 439.8,327.1 439.7,327.1 		"/>
		<polygon class="st1" points="447.1,314.2 447.2,314.2 447.2,314.3 		"/>
		<polygon class="st1" points="357.9,442.8 358.2,442.6 358.2,442.9 		"/>
		<polygon class="st1" points="372.8,442.5 373.3,442.8 372.8,443.1 		"/>
		<polygon class="st1" points="395,429.5 395.7,429.9 395,430.3 		"/>
		<polygon class="st1" points="402.2,417.1 402.9,416.6 402.9,417.5 		"/>
		<polygon class="st1" points="417.3,391 417.9,391.3 417.3,391.7 		"/>
		<polygon class="st1" points="424.6,378.5 425.1,378.2 425.1,378.8 		"/>
		<polygon class="st1" points="439.6,352.5 440,352.8 439.6,353 		"/>
		<polygon class="st1" points="446.9,339.9 447.3,339.7 447.3,340.1 		"/>
		<polygon class="st1" points="462,314.1 462.2,314.2 462,314.3 		"/>
		<polygon class="st1" points="469.3,301.3 469.5,301.2 469.5,301.5 		"/>
		<polygon class="st1" points="484.3,275.6 484.4,275.6 484.3,275.7 		"/>
		<polygon class="st1" points="491.7,262.8 491.7,262.8 491.7,262.8 		"/>
		<polygon class="st1" points="335.8,455.6 335.9,455.6 335.9,455.7 		"/>
		<polygon class="st1" points="350.6,455.5 350.9,455.6 350.6,455.8 		"/>
		<polygon class="st1" points="379.9,455.6 380.6,455.2 380.6,456 		"/>
		<polygon class="st1" points="394.9,455.1 395.8,455.6 394.9,456.1 		"/>
		<polygon class="st1" points="402,442.8 403,442.2 403,443.3 		"/>
		<polygon class="st1" points="417.2,416.6 418.1,417.1 417.2,417.5 		"/>
		<polygon class="st1" points="424.4,404.2 425.2,403.7 425.2,404.7 		"/>
		<polygon class="st1" points="439.5,378.1 440.3,378.5 439.5,378.9 		"/>
		<polygon class="st1" points="446.7,365.6 447.4,365.2 447.4,366 		"/>
		<polygon class="st1" points="461.9,339.6 462.4,339.9 461.9,340.2 		"/>
		<polygon class="st1" points="469.1,327.1 469.6,326.8 469.6,327.3 		"/>
		<polygon class="st1" points="484.2,301.1 484.6,301.3 484.2,301.6 		"/>
		<polygon class="st1" points="491.5,288.5 491.8,288.3 491.8,288.7 		"/>
		<polygon class="st1" points="506.5,262.7 506.7,262.8 506.5,262.9 		"/>
		<polygon class="st1" points="513.9,249.9 514,249.9 514,250 		"/>
		<polygon class="st1" points="417.1,442.1 418.3,442.8 417.1,443.4 		"/>
		<polygon class="st1" points="424.2,429.9 425.3,429.3 425.3,430.6 		"/>
		<polygon class="st1" points="439.4,403.6 440.5,404.2 439.4,404.8 		"/>
		<polygon class="st1" points="446.5,391.3 447.5,390.7 447.5,391.9 		"/>
		<polygon class="st1" points="461.7,365.1 462.7,365.6 461.7,366.2 		"/>
		<polygon class="st1" points="468.9,352.8 469.7,352.3 469.7,353.2 		"/>
		<polygon class="st1" points="484.1,326.7 484.8,327.1 484.1,327.5 		"/>
		<polygon class="st1" points="491.3,314.2 491.9,313.9 491.9,314.6 		"/>
		<polygon class="st1" points="506.4,288.2 506.9,288.5 506.4,288.8 		"/>
		<polygon class="st1" points="513.7,275.6 514.1,275.4 514.1,275.9 		"/>
		<polygon class="st1" points="528.8,249.8 529,249.9 528.8,250.1 		"/>
		<polygon class="st1" points="536.1,237.1 536.3,237 536.3,237.2 		"/>
		<polygon class="st1" points="424,455.6 425.4,454.8 425.4,456.4 		"/>
		<polygon class="st1" points="439.3,429.1 440.7,429.9 439.3,430.7 		"/>
		<polygon class="st1" points="446.3,417.1 447.6,416.3 447.6,417.8 		"/>
		<polygon class="st1" points="461.6,390.6 462.9,391.3 461.6,392.1 		"/>
		<polygon class="st1" points="468.7,378.5 469.8,377.8 469.8,379.2 		"/>
		<polygon class="st1" points="484,352.2 485,352.8 484,353.4 		"/>
		<polygon class="st1" points="491.1,339.9 492,339.4 492,340.5 		"/>
		<polygon class="st1" points="506.3,313.7 507.1,314.2 506.3,314.7 		"/>
		<polygon class="st1" points="513.5,301.3 514.2,300.9 514.2,301.8 		"/>
		<polygon class="st1" points="528.6,275.3 529.2,275.6 528.6,276 		"/>
		<polygon class="st1" points="535.9,262.8 536.4,262.5 536.4,263.1 		"/>
		<polygon class="st1" points="551,236.9 551.3,237.1 551,237.2 		"/>
		<polygon class="st1" points="558.4,224.2 558.6,224.1 558.6,224.3 		"/>
		<polygon class="st1" points="439.2,454.7 440.8,455.6 439.2,456.5 		"/>
		<polygon class="st1" points="446.1,442.8 447.7,441.9 447.7,443.7 		"/>
		<polygon class="st1" points="461.5,416.2 463,417.1 461.5,417.9 		"/>
		<polygon class="st1" points="468.5,404.2 469.9,403.3 469.9,405.1 		"/>
		<polygon class="st1" points="483.8,377.7 485.2,378.5 483.8,379.3 		"/>
		<polygon class="st1" points="490.9,365.6 492.2,364.9 492.2,366.4 		"/>
		<polygon class="st1" points="506.2,339.3 507.3,339.9 506.2,340.6 		"/>
		<polygon class="st1" points="513.3,327.1 514.3,326.4 514.3,327.7 		"/>
		<polygon class="st1" points="528.5,300.8 529.5,301.3 528.5,301.9 		"/>
		<polygon class="st1" points="535.7,288.5 536.5,288 536.5,289 		"/>
		<polygon class="st1" points="550.9,262.4 551.5,262.8 550.9,263.1 		"/>
		<polygon class="st1" points="558.2,249.9 558.7,249.6 558.7,250.2 		"/>
		<polygon class="st1" points="461.4,441.7 463.2,442.8 461.4,443.8 		"/>
		<polygon class="st1" points="468.3,429.9 470.1,428.9 470.1,430.9 		"/>
		<polygon class="st1" points="483.7,403.2 485.4,404.2 483.7,405.2 		"/>
		<polygon class="st1" points="490.6,391.3 492.3,390.4 492.3,392.3 		"/>
		<polygon class="st1" points="506.1,364.8 507.6,365.6 506.1,366.5 		"/>
		<polygon class="st1" points="513.1,352.8 514.5,352 514.5,353.6 		"/>
		<polygon class="st1" points="528.4,326.3 529.7,327.1 528.4,327.8 		"/>
		<polygon class="st1" points="535.5,314.2 536.6,313.5 536.6,314.9 		"/>
		<polygon class="st1" points="550.8,288 551.7,288.5 550.8,289 		"/>
		<polygon class="st1" points="558,275.6 558.8,275.2 558.8,276.1 		"/>
		<polygon class="st1" points="468.1,455.6 470.1,454.4 470.1,456.8 		"/>
		<polygon class="st1" points="483.6,428.7 485.7,429.9 483.6,431.1 		"/>
		<polygon class="st1" points="490.4,417.1 492.4,415.9 492.4,418.2 		"/>
		<polygon class="st1" points="506,390.3 507.8,391.3 506,392.4 		"/>
		<polygon class="st1" points="512.8,378.5 514.6,377.4 514.6,379.5 		"/>
		<polygon class="st1" points="528.3,351.9 529.9,352.8 528.3,353.7 		"/>
		<polygon class="st1" points="535.2,339.9 536.8,339 536.8,340.8 		"/>
		<polygon class="st1" points="550.7,313.5 552,314.2 550.7,314.9 		"/>
		<polygon class="st1" points="557.8,301.3 558.9,300.7 558.9,302 		"/>
		<polygon class="st1" points="483.5,454.3 485.8,455.6 483.5,456.9 		"/>
		<polygon class="st1" points="490.2,442.8 492.5,441.5 492.5,444.1 		"/>
		<polygon class="st1" points="505.8,415.8 508,417.1 505.8,418.3 		"/>
		<polygon class="st1" points="512.6,404.2 514.7,403 514.7,405.4 		"/>
		<polygon class="st1" points="528.2,377.4 530.1,378.5 528.2,379.6 		"/>
		<polygon class="st1" points="535,365.6 536.9,364.6 536.9,366.7 		"/>
		<polygon class="st1" points="550.5,338.9 552.2,339.9 550.5,340.9 		"/>
		<polygon class="st1" points="557.5,327.1 559,326.2 559,327.9 		"/>
		<polygon class="st1" points="505.8,441.4 508.2,442.8 505.8,444.2 		"/>
		<polygon class="st1" points="512.4,429.9 514.8,428.5 514.8,431.3 		"/>
		<polygon class="st1" points="528.1,402.9 530.4,404.2 528.1,405.5 		"/>
		<polygon class="st1" points="534.8,391.3 537,390.1 537,392.6 		"/>
		<polygon class="st1" points="550.4,364.5 552.5,365.6 550.4,366.8 		"/>
		<polygon class="st1" points="557.2,352.8 559.2,351.7 559.2,353.9 		"/>
		<polygon class="st1" points="512.2,455.6 514.9,454.1 514.9,457.1 		"/>
		<polygon class="st1" points="528,428.4 530.6,429.9 528,431.4 		"/>
		<polygon class="st1" points="534.6,417.1 537.1,415.6 537.1,418.5 		"/>
		<polygon class="st1" points="550.3,390 552.7,391.3 550.3,392.7 		"/>
		<polygon class="st1" points="557,378.5 559.3,377.2 559.3,379.8 		"/>
		<polygon class="st1" points="527.9,454 530.7,455.6 527.9,457.3 		"/>
		<polygon class="st1" points="534.4,442.8 537.2,441.1 537.2,444.4 		"/>
		<polygon class="st1" points="550.2,415.5 552.9,417.1 550.2,418.6 		"/>
		<polygon class="st1" points="556.8,404.2 559.4,402.7 559.4,405.7 		"/>
		<polygon class="st1" points="550.1,441 553.1,442.8 550.1,444.5 		"/>
		<polygon class="st1" points="556.6,429.9 559.5,428.2 559.5,431.6 		"/>
		<polygon class="st1" points="556.4,455.6 559.6,453.8 559.6,457.5 		"/>
	</g>
</g>
</svg>
